<svg xmlns="http://www.w3.org/2000/svg" xmlns:xlink="http://www.w3.org/1999/xlink" width="48" height="48" viewBox="0 0 48 48">
    <defs>
        <path id="coqgtgbkxa" d="M0 0L48 0 48 48 0 48z"/>
        <path id="7s4ua2bmbc" d="M0 0L46 0 46 46 0 46z"/>
    </defs>
    <g fill="none" fill-rule="evenodd">
        <g>
            <g>
                <g transform="translate(-50 -1614) translate(20 1488) translate(30 126)">
                    <mask id="krfqkutx2b" fill="#fff">
                        <use xlink:href="#coqgtgbkxa"/>
                    </mask>
                    <path fill="#F3F8FF" d="M48 24c0 13.255-10.746 24-24 24C10.745 48 0 37.255 0 24S10.745 0 24 0c13.254 0 24 10.745 24 24" mask="url(#krfqkutx2b)"/>
                    <g mask="url(#krfqkutx2b)">
                        <g>
                            <g transform="translate(0 2)"/>
                            <path fill="#FFF" d="M28.841 38.533h-9.075c-1.764 0-3.194-1.431-3.194-3.195V11.416c0-1.765 1.43-3.195 3.194-3.195h9.075c1.765 0 3.195 1.43 3.195 3.195v23.922c0 1.764-1.43 3.195-3.195 3.195" transform="translate(0 2)"/>
                            <path fill="#E6F0FF" d="M17.663 36.43V12.506c0-1.764 1.43-3.195 3.195-3.195h9.074c.474 0 .921.106 1.326.291-.585-.678-1.45-1.11-2.417-1.11h-9.075c-1.764 0-3.194 1.43-3.194 3.195V35.61c0 1.292.767 2.402 1.87 2.905-.485-.56-.78-1.288-.78-2.086" transform="translate(0 2)"/>
                            <path stroke="#07448E" stroke-linejoin="round" stroke-width="1.2" d="M28.841 38.533h-9.075c-1.764 0-3.194-1.431-3.194-3.195V11.416c0-1.765 1.43-3.195 3.194-3.195h9.075c1.765 0 3.195 1.43 3.195 3.195v23.922c0 1.764-1.43 3.195-3.195 3.195z" transform="translate(0 2)"/>
                            <path fill="#1A478B" d="M25.449 36.04c0 .633-.513 1.145-1.145 1.145-.633 0-1.146-.512-1.146-1.144 0-.633.513-1.146 1.146-1.146.632 0 1.145.513 1.145 1.146" transform="translate(0 2)"/>
                            <path stroke="#07448E" stroke-linecap="round" stroke-linejoin="round" stroke-width="1.2" d="M15.929 38.536L33.396 38.536" transform="translate(0 2)"/>
                            <path fill="#97E591" d="M29.329 20.953c0 2.639-2.138 4.776-4.776 4.776s-4.777-2.137-4.777-4.776c0-2.636 2.139-4.775 4.777-4.775 2.638 0 4.776 2.139 4.776 4.775" transform="translate(0 2)"/>
                            <path fill="#75C957" d="M21.846 21.13L23.678 23.003 27.26 19.869 26.536 18.905 23.699 21.298 22.791 20.278z" transform="translate(0 2)"/>
                            <path fill="#FFF" d="M21.846 20.849L23.678 22.721 27.26 19.587 26.536 18.624 23.699 21.017 22.791 19.997z" transform="translate(0 2)"/>
                            <path fill="#97E591" d="M10.078 21.29L7.69 19.57c-.194-.14-.238-.412-.097-.606l1.721-2.389c.14-.195.412-.239.607-.099l2.387 1.723c.195.14.239.412.099.607l-1.722 2.388c-.14.194-.413.238-.607.097" transform="translate(0 2)"/>
                            <path fill="#C0F9FF" d="M35.227 9.241l-1.104-.794c-.09-.066-.11-.191-.046-.282l.797-1.104c.064-.09.19-.11.28-.045l1.103.796c.09.064.11.19.046.28l-.796 1.104c-.065.09-.19.11-.28.045" transform="translate(0 2)"/>
                            <path fill="#FC75AC" d="M35.86 16.671l1.846-1.35c.284-.207.681-.146.888.137l1.35 1.847c.207.283.146.68-.137.887l-1.846 1.35c-.283.207-.68.146-.887-.137l-1.351-1.847c-.206-.283-.145-.68.138-.887" transform="translate(0 2)"/>
                            <path fill="#FFCF36" d="M15.808 5.746c0 .402-.326.727-.726.727-.401 0-.727-.325-.727-.727 0-.4.326-.725.727-.725.4 0 .726.325.726.725" transform="translate(0 2)"/>
                        </g>
                    </g>
                </g>
            </g>
        </g>
    </g>
</svg>
